<svg version="1.1" viewBox="0.0 0.0 32.0 32.0" fill="none" stroke="none" stroke-linecap="square" stroke-miterlimit="10"
     xmlns:xlink="http://www.w3.org/1999/xlink" xmlns="http://www.w3.org/2000/svg">
    <clipPath id="p.0">
        <path d="m0 0l32.0 0l0 32.0l-32.0 0l0 -32.0z" clip-rule="nonzero"/>
    </clipPath>
    <g clip-path="url(#p.0)">
        <path fill="#000000" fill-opacity="0.0" d="m0 0l32.0 0l0 32.0l-32.0 0z" fill-rule="evenodd"/>
        <path fill="#434343"
              d="m0 3.20384l0 0c0 -1.769432 1.4344081 -3.20384 3.20384 -3.20384l25.59232 0c0.8497124 0 1.6646214 0.33754647 2.2654572 0.938383c0.6008358 0.60083663 0.9383831 1.4157459 0.9383831 2.2654572l0 25.59232c0 1.7694321 -1.4344082 3.2038403 -3.2038403 3.2038403l-25.59232 0c-1.769432 0 -3.20384 -1.4344082 -3.20384 -3.2038403z"
              fill-rule="evenodd"/>
        <defs>
            <linearGradient id="p.1" gradientUnits="userSpaceOnUse"
                            gradientTransform="matrix(4.840780359535471 0.0 0.0 4.840780359535471 0.0 0.0)"
                            spreadMethod="pad" x1="0.8904654861467851" y1="0.890448012899238" x2="0.890448012899238"
                            y2="5.731228372403174">
                <stop offset="0.0" stop-color="#4e29aa"/>
                <stop offset="1.0" stop-color="#1e123d"/>
            </linearGradient>
        </defs>
        <path fill="url(#p.1)"
              d="m4.310548 16.027084l0 0c0 -6.4708643 5.245672 -11.7165365 11.7165365 -11.7165365l0 0c3.107418 0 6.0875645 1.2344174 8.284842 3.431694c2.1972752 2.197276 3.4316921 5.1774235 3.4316921 8.2848425l0 0c0 6.4708633 -5.2456703 11.716534 -11.716534 11.716534l0 0c-6.4708643 0 -11.7165365 -5.2456703 -11.7165365 -11.716534zm11.30013 0c0 0.22997284 0.18643093 0.41640472 0.41640663 0.41640472c0.22997284 0 0.41640472 -0.18643188 0.41640472 -0.41640472c0 -0.2299757 -0.18643188 -0.41640663 -0.41640472 -0.41640663c-0.2299757 0 -0.41640663 0.18643093 -0.41640663 0.41640663z"
              fill-rule="evenodd"/>
        <path fill="#e32ba3"
              d="m0.6002916 16.033363l0 0c0 -8.523451 6.9096212 -15.433072 15.433072 -15.433072l0 0c4.0931034 0 8.018566 1.6259795 10.912828 4.5202417c2.8942623 2.8942618 4.520241 6.8197246 4.520241 10.91283l0 0c0 8.523449 -6.9096203 15.433069 -15.433069 15.433069l0 0c-8.523451 0 -15.433072 -6.9096203 -15.433072 -15.433069zm3.7252345 0l0 0c0 6.4660587 5.2417765 11.707836 11.707837 11.707836c6.4660587 0 11.707836 -5.2417774 11.707836 -11.707836l0 0c0 -6.4660606 -5.2417774 -11.707837 -11.707836 -11.707837l0 0c-6.4660606 0 -11.707837 5.2417765 -11.707837 11.707837z"
              fill-rule="evenodd"/>
        <path fill="#ffdd5d" d="m24.190231 2.874667l4.692913 0l0 26.236221l-4.692913 0z" fill-rule="evenodd"/>
        <path fill="#ffc30e" d="m3.1250021 2.8745813l4.692913 0l0 26.236221l-4.692913 0z" fill-rule="evenodd"/>
        <path fill="#ffdd5d" d="m21.875013 17.678152l-13.905043 -14.80315l-4.8351145 0l13.905044 14.80315z"
              fill-rule="evenodd"/>
        <path fill="#ffc30e" d="m10.125007 17.678152l13.954337 -14.80315l4.78582 0l-13.954337 14.80315z"
              fill-rule="evenodd"/>
        <defs>
            <linearGradient id="p.2" gradientUnits="userSpaceOnUse"
                            gradientTransform="matrix(3.427540339316384 0.0 0.0 3.427540339316384 0.0 0.0)"
                            spreadMethod="pad" x1="2.954009260372551" y1="6.064535595045971" x2="6.381549599688936"
                            y2="6.064535595045971">
                <stop offset="0.0" stop-color="#ffc30e"/>
                <stop offset="1.0" stop-color="#ffdd5d"/>
            </linearGradient>
        </defs>
        <path  fill="url(#p.2)" d="m10.13 17.5l11.748033 0l0 3.1181107l-11.748033 0z" fill-rule="evenodd"/>
    </g>
</svg>